<?xml version="1.0" encoding="utf-8"?>
<!-- Generator: Adobe Illustrator 25.2.1, SVG Export Plug-In . SVG Version: 6.00 Build 0)  -->
<svg version="1.1" id="Layer_1" xmlns="http://www.w3.org/2000/svg" xmlns:xlink="http://www.w3.org/1999/xlink" x="0px" y="0px"
	 viewBox="0 0 612 792" style="enable-background:new 0 0 612 792;" xml:space="preserve">
<style type="text/css">
	.st0{fill:#00AEEF;}
	.st1{fill:#FFFFFF;}
</style>
<path class="st0" d="M88.77,372.07l8-32.92l2.71-1.41l1.57-6.55l-2.41,0.23l8.54-35.12l10.97-3.13c11.11-3.17,21.85-6,32.84-8.63
	l0.2-0.05c5-1.14,9.12-1.79,12.64-2.02c0.94-0.06,1.88-0.09,2.8-0.09c3.92,0,7.62,0.55,11.01,1.64c1.04,0.33,2.07,0.73,3.08,1.19
	c4.67-0.78,7.73-1.24,13-1.96l2.3-0.32l0.02-0.22l5.84-0.63l1.15-0.11l16.28-2.24l-0.06,0.51l10.04-0.58l20.23-1.4l-0.03,0.51
	c2.67-0.05,5.58-0.07,9.12-0.08h0.21c1.09,0,2.15,0.02,3.19,0.06l-0.02-0.53l21.95,1.09c1.72,0.09,3.25,0.17,4.65,0.25l-0.1-0.67
	l20.23,2.29l11.29,1.03l0.02,0.28c0.71,0.09,1.4,0.17,2.07,0.26c4.18-2.98,9.32-4.55,14.87-4.55c1.71,0,3.46,0.15,5.22,0.46
	c6.27,1.08,11.86,3.92,16.15,8.21c1.39,1.39,2.6,2.88,3.62,4.47c1.18-0.1,2.38-0.15,3.58-0.15c4.38,0,8.94,0.61,13.96,1.88
	c4.07,1.02,8.02,2.38,11.75,4.04c1.44,0.64,2.93,1.36,4.51,2.17l1.89-0.83l10.84,7l13.6,8.84l-5.98,10.84
	c2.95,3.72,4.95,7.68,5.95,11.81c1.44,5.93,0.58,11.89-2.41,16.78c-1.71,2.79-4.07,5.17-6.93,7.06l12.39,17.02l-34.25-1.01
	c-1.9,1-3.98,1.76-6.2,2.29c-2.45,0.58-5.09,0.88-7.87,0.88c-4.54,0-9.63-0.78-15.56-2.38c-2.9-0.78-5.86-1.75-8.8-2.86l-1.03,1.14
	l-6.02-3.06l-16.57-4.02l0.01,0.13l-14.01-1.74l-26.47-1.64l-30.73-0.39l-5.74-1.92c-4.49,0.07-8.19,0.22-14.39,0.58l-14.57,0.85
	c-3.32,0.92-7.03,1.63-11.22,2.16c-3.53,0.44-6.68,0.66-9.63,0.66c-0.36,0-0.72,0-1.08-0.01l-12.68,2.38
	c-4.62,0.87-7.4,1.43-10.64,2.13l-0.86,0.19c-1.39,0.31-2.89,0.65-4.63,1.05l-9.48,2.19l-9.55,2.68c-5.76,1.62-8.58,2.46-14.39,4.31
	l-22.3,7.1L88.77,372.07z"/>
<path class="st0" d="M401.93,357.85c10.18-2.42,15.54-10.17,13.33-19.27c-0.84-3.46-2.65-6.83-5.39-10.02
	c-0.72-0.84-1.49-1.66-2.3-2.44c0.29-0.52,5.25-9.51,5.25-9.51l-8.13-5.28l-7.67-4.95l-1.56,0.68c-2.57-1.42-4.9-2.59-7.05-3.55
	c-3.37-1.5-6.94-2.72-10.62-3.65c-4.45-1.12-8.46-1.66-12.25-1.66c-2.66,0-5.19,0.29-7.55,0.84c-0.94-2.66-2.47-5.08-4.61-7.21
	c-3.26-3.26-7.55-5.43-12.39-6.27c-1.36-0.23-2.72-0.35-4.03-0.35c-4.1,0-7.84,1.13-10.83,3.27c-0.7,0.5-1.33,1.05-1.9,1.63
	c-3.34-0.46-6.43-0.84-10.77-1.33l-0.01-0.12l-5.45-0.5l-11.29-1.28l0.04,0.28c-4.3-0.35-7.82-0.57-13.17-0.84l-14.29-0.71
	l0.04,0.91c-3.14-0.54-6.62-0.81-10.52-0.81h-0.19c-6.72,0.01-11.22,0.09-16.55,0.31l0.01-0.21l-12.39,0.86l-7.47,0.43l0,0.1
	c-2.82,0.22-5.32,0.45-8.95,0.81l-1.98,0.2l0.03-0.29l-7.48,1.03l-1.29,0.13l0,0.05l-7.89,1.08c-5.99,0.82-9.09,1.3-15.06,2.31
	c-1.26-0.72-2.63-1.33-4.1-1.81c-2.7-0.86-5.69-1.3-8.88-1.3c-0.77,0-1.56,0.03-2.35,0.08c-3.14,0.2-6.9,0.8-11.49,1.85l-0.17,0.04
	c-10.9,2.61-21.54,5.41-32.55,8.55l-7.05,2.01l-5.25,21.61l2.37-0.22l-4.58,19.18l-2.73,1.42l-6.06,24.93l20.68,12.99l19.2-6.11
	c5.9-1.88,8.77-2.74,14.62-4.38l6.34-1.78l0.04-0.18l12.97-2.99c1.77-0.41,3.29-0.75,4.7-1.07l0,0l0.87-0.19
	c3.47-0.76,6.39-1.34,10.85-2.18l7.77-1.46l0.07-0.49l3.26-0.72c1.25,0.11,2.56,0.17,3.95,0.17c2.66,0,5.52-0.2,8.75-0.6
	c5.39-0.68,9.92-1.69,13.71-3.07l-0.03,0.75l12.58-0.73c6.56-0.38,10.55-0.54,15.89-0.61l5.83,1.95l29.81,0.38l26.86,1.66l5.54,0.69
	l-0.03-0.35l4.79,0.3l22.08,5.36l1.96,1l0.39-0.43l2.96,0.72c3.29,1.33,6.6,2.45,9.93,3.35c5.33,1.44,9.82,2.14,13.73,2.14
	c2.23,0,4.33-0.23,6.25-0.69c2.31-0.55,4.33-1.42,6.02-2.54l21.98,0.65L401.93,357.85z"/>
<path d="M401.93,357.85c10.18-2.42,15.54-10.17,13.33-19.27c-0.84-3.46-2.65-6.83-5.39-10.02c-0.72-0.84-1.49-1.66-2.3-2.44
	c0.29-0.52,5.25-9.51,5.25-9.51l-8.13-5.28l-7.67-4.95l-1.56,0.68c-2.57-1.42-4.9-2.59-7.05-3.55c-3.37-1.5-6.94-2.72-10.62-3.65
	c-4.45-1.12-8.46-1.66-12.25-1.66c-2.66,0-5.19,0.29-7.55,0.84c-0.94-2.66-2.47-5.08-4.61-7.21c-3.26-3.26-7.55-5.43-12.39-6.27
	c-1.36-0.23-2.72-0.35-4.03-0.35c-4.1,0-7.84,1.13-10.83,3.27c-0.7,0.5-1.33,1.05-1.9,1.63c-3.34-0.46-6.43-0.84-10.77-1.33
	l-0.01-0.12l-5.45-0.5l-11.29-1.28l0.04,0.28c-4.3-0.35-7.82-0.57-13.17-0.84l-14.29-0.71l0.04,0.91
	c-3.14-0.54-6.62-0.81-10.52-0.81h-0.19c-6.72,0.01-11.22,0.09-16.55,0.31l0.01-0.21l-12.39,0.86l-7.47,0.43l0,0.1
	c-2.82,0.22-5.32,0.45-8.95,0.81l-1.98,0.2l0.03-0.29l-7.48,1.03l-1.29,0.13l0,0.05l-7.89,1.08c-5.99,0.82-9.09,1.3-15.06,2.31
	c-1.26-0.72-2.63-1.33-4.1-1.81c-2.7-0.86-5.69-1.3-8.88-1.3c-0.77,0-1.56,0.03-2.35,0.08c-3.14,0.2-6.9,0.8-11.49,1.85l-0.17,0.04
	c-10.9,2.61-21.54,5.41-32.55,8.55l-7.05,2.01l-5.25,21.61l2.37-0.22l-4.58,19.18l-2.73,1.42l-6.06,24.93l20.68,12.99l19.2-6.11
	c5.9-1.88,8.77-2.74,14.62-4.38l6.34-1.78l0.04-0.18l12.97-2.99c1.77-0.41,3.29-0.75,4.7-1.07l0,0l0.87-0.19
	c3.47-0.76,6.39-1.34,10.85-2.18l7.77-1.46l0.07-0.49l3.26-0.72c1.25,0.11,2.56,0.17,3.95,0.17c2.66,0,5.52-0.2,8.75-0.6
	c5.39-0.68,9.92-1.69,13.71-3.07l-0.03,0.75l12.58-0.73c6.56-0.38,10.55-0.54,15.89-0.61l5.83,1.95l29.81,0.38l26.86,1.66l5.54,0.69
	l-0.03-0.35l4.79,0.3l22.08,5.36l1.96,1l0.39-0.43l2.96,0.72c3.29,1.33,6.6,2.45,9.93,3.35c5.33,1.44,9.82,2.14,13.73,2.14
	c2.23,0,4.33-0.23,6.25-0.69c2.31-0.55,4.33-1.42,6.02-2.54l21.98,0.65L401.93,357.85z"/>
<g>
	<g>
		<path class="st1" d="M132.73,329.81c-1.21,5.5-1.83,8.31-3.1,14.08c-0.14,0.64-0.06,1.08,0.26,1.32c0.31,0.24,0.92,0.32,1.81,0.25
			c-0.09,0.41-0.13,0.62-0.22,1.03c-6.87,1.93-10.32,2.96-17.28,5.18c0.1-0.42,0.15-0.63,0.25-1.04c1.03-0.53,1.78-1.02,2.24-1.49
			c0.46-0.46,0.77-1.02,0.92-1.66c2.79-11.69,5.59-23.37,8.38-35.06c0.14-0.59,0.07-0.98-0.21-1.18c-0.28-0.2-0.85-0.26-1.72-0.18
			c0.09-0.36,0.13-0.54,0.22-0.91c10.61-3.03,21.15-5.81,31.93-8.39c3.85-0.88,6.86-1.36,9.05-1.49c2.19-0.14,4.05,0.05,5.59,0.54
			c1.78,0.57,3.05,1.59,3.75,3.04c0.67,1.41,0.87,3.04,0.59,4.88c-0.95,6.27-6.21,10.92-15.91,14.14c3.29,3.57,4.96,5.4,8.36,9.18
			c1.5,1.65,2.64,2.71,3.4,3.13c0.76,0.42,1.75,0.55,2.97,0.38c-0.06,0.4-0.09,0.6-0.15,0.99c-7.75,1.45-11.64,2.27-19.47,4.07
			c0.07-0.4,0.11-0.6,0.18-1.01c1.37-0.48,2.11-1,2.21-1.59c0.07-0.37-0.39-1.14-1.37-2.29c-3.46-3.99-5.16-5.92-8.5-9.68
			C141.27,327.47,138.43,328.22,132.73,329.81z M134.21,323.07c7.11-1.96,10.64-2.87,17.67-4.53c2.6-0.62,4.44-1.09,5.52-1.44
			s2.1-0.81,3.06-1.37c2.06-1.21,3.26-2.82,3.61-4.85c0.35-2.02-0.37-3.21-2.12-3.57c-0.83-0.18-1.74-0.21-2.73-0.09
			c-0.99,0.12-2.78,0.47-5.38,1.07c-6.89,1.6-10.36,2.48-17.33,4.37C135.6,316.74,135.14,318.82,134.21,323.07z"/>
		<path class="st1" d="M225.91,300.56c-0.4,6.48-0.61,9.82-1.03,16.71c-0.24,3.93-1.44,6.97-3.61,9.04c-3.5,3.3-9.9,5.39-19.15,6.55
			c-6.19,0.78-11.14,0.78-14.76-0.11c-2.61-0.64-4.29-1.88-5.03-3.68c-0.68-1.66-0.84-3.84-0.47-6.5
			c0.96-7.02,1.42-10.42,2.32-17.02c0.08-0.57-0.04-0.98-0.34-1.22c-0.31-0.24-0.89-0.38-1.75-0.44c0.04-0.31,0.07-0.46,0.11-0.77
			c5.85-0.99,8.77-1.44,14.59-2.24c-0.04,0.31-0.05,0.46-0.09,0.77c-0.91,0.31-1.56,0.64-1.93,0.99c-0.37,0.35-0.6,0.81-0.66,1.38
			c-0.71,5.97-1.07,9.03-1.83,15.34c-0.22,1.83-0.18,3.22,0.13,4.15c0.3,0.93,0.94,1.64,1.92,2.12c1.95,1,4.93,1.23,8.9,0.74
			c3.97-0.49,7.06-1.46,9.26-2.97c1.07-0.74,1.85-1.62,2.33-2.64c0.48-1.02,0.79-2.45,0.94-4.26c0.49-6.24,0.72-9.28,1.18-15.19
			c0.04-0.57-0.09-0.98-0.39-1.24c-0.31-0.26-0.9-0.45-1.79-0.56c0.03-0.3,0.04-0.46,0.06-0.76c5.45-0.54,8.17-0.77,13.61-1.14
			c-0.02,0.3-0.03,0.45-0.04,0.76c-0.89,0.24-1.51,0.53-1.87,0.85C226.14,299.55,225.94,300,225.91,300.56z"/>
		<path class="st1" d="M235.91,326.05c0.36-8.73,0.72-17.45,1.09-26.18c0.02-0.56-0.13-0.98-0.46-1.25
			c-0.33-0.27-0.93-0.48-1.79-0.63c0.01-0.3,0.02-0.45,0.03-0.76c9.56-0.53,14.34-0.66,23.88-0.68c4.96-0.01,8.88,0.51,11.76,1.5
			c4.06,1.39,7.04,3.67,8.94,6.82c1.33,2.2,2.06,4.77,2.18,7.72c0.21,5.46-1.77,9.64-6.04,12.43c-1.93,1.24-4.23,2.13-6.89,2.67
			c-2.67,0.54-6.01,0.79-10.01,0.8c-10.11,0.02-15.16,0.18-25.29,0.77c0.02-0.34,0.02-0.51,0.04-0.85c0.91-0.23,1.55-0.53,1.94-0.89
			C235.68,327.16,235.89,326.67,235.91,326.05z M246.25,322.62c4.36-0.13,6.53-0.17,10.89-0.19c5-0.03,8.62-0.86,10.85-2.58
			c2.32-1.79,3.43-4.35,3.36-7.64c-0.07-3.29-1.27-5.81-3.59-7.59c-1.14-0.89-2.55-1.54-4.22-1.95c-1.67-0.41-3.77-0.62-6.32-0.6
			c-4.2,0.02-6.3,0.06-10.5,0.18C246.54,310.1,246.45,314.17,246.25,322.62z"/>
		<path class="st1" d="M312.51,317.08c0.42,4.52,0.64,6.82,1.08,11.53c0.06,0.63,0.28,1.13,0.68,1.51c0.39,0.38,1.06,0.73,2.02,1.07
			c0.03,0.33,0.05,0.49,0.08,0.82c-6.15-0.76-9.21-1.09-15.34-1.65c-0.02-0.33-0.04-0.49-0.06-0.82c0.91-0.12,1.54-0.33,1.87-0.62
			c0.33-0.3,0.48-0.77,0.43-1.41c-0.36-4.69-0.53-6.98-0.87-11.49c-5.41-5.75-8.04-8.52-13.19-13.86c-1.45-1.5-2.58-2.52-3.42-3.08
			c-0.84-0.56-1.82-0.96-2.95-1.2c-0.01-0.3-0.02-0.45-0.03-0.76c7.34,0.38,11.02,0.64,18.39,1.31c0.02,0.3,0.03,0.46,0.06,0.76
			c-1.56,0.16-2.32,0.65-2.26,1.45c0.03,0.4,0.66,1.25,1.91,2.57c2.58,2.7,3.89,4.08,6.53,6.88c2.15-2.3,3.22-3.44,5.32-5.66
			c1.04-1.1,1.53-1.85,1.49-2.25c-0.08-0.77-0.91-1.41-2.51-1.92c-0.04-0.31-0.07-0.46-0.11-0.77c7.03,0.8,10.55,1.26,17.62,2.34
			c0.04,0.31,0.06,0.46,0.1,0.77c-1.11,0.01-2.04,0.22-2.8,0.62c-0.76,0.4-1.75,1.21-2.96,2.45
			C319.24,310.09,317.03,312.36,312.51,317.08z"/>
		<path class="st1" d="M336.79,310.81c1.91-0.66,3.24-1.38,4-2.17s1.21-1.93,1.35-3.38c-1.13,0.01-1.98-0.03-2.55-0.13
			c-1.63-0.29-3-0.93-4.1-1.94c-1.1-1.01-1.74-2.19-1.92-3.53c-0.18-1.34,0.17-2.33,1.05-2.95c0.88-0.63,2.13-0.8,3.76-0.52
			c1.97,0.34,3.64,1.2,5.03,2.59c1.39,1.39,2.24,3.05,2.54,4.98c0.63,4.04-1.69,7.08-7.09,9.22
			C338.02,312.1,337.61,311.67,336.79,310.81z"/>
		<path class="st1" d="M396.7,319.88c-1.34,2.43-2.02,3.67-3.39,6.18c-0.41-0.27-0.61-0.4-1.02-0.66c-0.15-0.66-0.54-1.25-1.17-1.79
			c-1.7-1.43-4.05-2.88-7.03-4.3c-2.98-1.42-5.91-2.49-8.8-3.23c-2.46-0.63-4.59-0.9-6.39-0.84c-2.59,0.09-3.75,0.87-3.49,2.3
			c0.18,0.95,0.97,1.78,2.37,2.5c1.4,0.72,4.03,1.65,7.91,2.86c2.47,0.76,3.7,1.15,6.18,1.96c5.41,1.75,9.69,3.75,12.83,5.88
			c1.74,1.2,3.27,2.57,4.6,4.12c1.66,1.94,2.74,3.9,3.22,5.88c0.87,3.59-0.5,5.82-4.15,6.69c-3.49,0.83-8.65,0.26-15.38-1.56
			c-6.78-1.83-13.53-4.59-20.13-8.22c-0.45-0.24-0.81-0.39-1.1-0.46c-0.53-0.12-0.97,0.02-1.33,0.42c-0.42-0.21-0.62-0.32-1.04-0.53
			c1.23-3.02,1.84-4.5,3.03-7.42c0.41,0.21,0.62,0.31,1.03,0.52c0.02,0.12,0.04,0.2,0.04,0.24c0.09,0.53,0.44,1.03,1.02,1.52
			c1.47,1.2,3.87,2.51,7.23,3.97c3.36,1.47,6.64,2.63,9.82,3.48c2.81,0.75,5.28,1.15,7.38,1.21c2.6,0.06,3.73-0.68,3.37-2.26
			c-0.29-1.27-1.44-2.43-3.45-3.46c-1.34-0.69-3.67-1.61-6.99-2.71c-2.5-0.82-3.74-1.22-6.23-2c-3.35-1.04-5.91-1.91-7.71-2.65
			c-1.79-0.73-3.39-1.55-4.79-2.46c-1.79-1.17-3.26-2.53-4.42-4.08c-1.16-1.55-1.86-3.12-2.14-4.7c-0.61-3.55,0.92-5.79,4.54-6.73
			c3.3-0.86,7.58-0.65,12.9,0.69c2.89,0.73,5.64,1.67,8.26,2.84c2.62,1.16,5.82,2.85,9.64,5.12c1.13,0.67,1.91,1.08,2.32,1.2
			c0.41,0.12,0.89,0.06,1.42-0.17C396.09,319.49,396.29,319.62,396.7,319.88z"/>
	</g>
</g>
</svg>
